<mxfile host="65bd71144e">
    <diagram id="ntJHjWkpwj2h2JEEfH1L" name="ページ1">
        <mxGraphModel dx="2436" dy="2820" grid="1" gridSize="10" guides="1" tooltips="1" connect="1" arrows="1" fold="1" page="1" pageScale="1" pageWidth="1600" pageHeight="900" background="#ffffff" math="0" shadow="0">
            <root>
                <mxCell id="0"/>
                <mxCell id="1" parent="0"/>
                <mxCell id="2" value="%%PAGE TITLE%%" style="text;strokeColor=none;align=left;fillColor=none;html=1;verticalAlign=middle;whiteSpace=wrap;rounded=0;fontSize=40;fontColor=#303030;fontStyle=1;fontFamily=Helvetica;" parent="1" vertex="1">
                    <mxGeometry x="80" y="20" width="610" height="80" as="geometry"/>
                </mxCell>
                <mxCell id="6" value="" style="rounded=0;whiteSpace=wrap;html=1;fontSize=36;fontColor=#303030;fontFamily=Helvetica;" parent="1" vertex="1">
                    <mxGeometry y="110" width="1590" height="10" as="geometry"/>
                </mxCell>
                <mxCell id="10" value="%%Header1%%" style="text;strokeColor=none;align=left;fillColor=none;html=1;verticalAlign=middle;whiteSpace=wrap;rounded=0;fontSize=36;fontColor=#303030;fontStyle=1;fontFamily=Helvetica;" parent="1" vertex="1">
                    <mxGeometry x="80" y="140" width="610" height="80" as="geometry"/>
                </mxCell>
                <mxCell id="11" value="%%Header2%%" style="text;strokeColor=none;align=left;fillColor=none;html=1;verticalAlign=middle;whiteSpace=wrap;rounded=0;fontSize=28;fontColor=#303030;fontStyle=1;fontFamily=Helvetica;" parent="1" vertex="1">
                    <mxGeometry x="120" y="280" width="610" height="80" as="geometry"/>
                </mxCell>
                <mxCell id="12" value="%%base text%%" style="text;strokeColor=none;align=left;fillColor=none;html=1;verticalAlign=middle;whiteSpace=wrap;rounded=0;fontSize=24;fontColor=#303030;fontStyle=0;fontFamily=Helvetica;" parent="1" vertex="1">
                    <mxGeometry x="120" y="400" width="610" height="80" as="geometry"/>
                </mxCell>
            </root>
        </mxGraphModel>
    </diagram>
</mxfile>